HIERARCHY
ROOT Hips
{
  OFFSET 0.000000 0.000000 0.000000
  CHANNELS 6 Xposition Yposition Zposition Zrotation Xrotation Yrotation
  JOINT Spine
  {
    OFFSET 0.000000 0.000000 0.000000
    CHANNELS 3 Zrotation Xrotation Yrotation
    JOINT Spine1
    {
      OFFSET 0.114178 0.375346 0.199977
      CHANNELS 3 Zrotation Xrotation Yrotation
      JOINT Spine2
      {
        OFFSET -0.305711 0.040779 0.096593
        CHANNELS 3 Zrotation Xrotation Yrotation
        JOINT Neck
        {
          OFFSET 0.000000 0.000000 0.000000
          CHANNELS 3 Zrotation Xrotation Yrotation
          JOINT Head
          {
            OFFSET 0.259589 0.001812 0.160172
            CHANNELS 3 Zrotation Xrotation Yrotation
          }
        }
      }
      JOINT LeftShoulder
      {
        OFFSET 0.000000 0.000000 0.000000
        CHANNELS 3 Zrotation Xrotation Yrotation
        JOINT LeftUpperArm
        {
          OFFSET 0.000000 0.000000 0.000000
          CHANNELS 3 Zrotation Xrotation Yrotation
          JOINT LeftForearm
          {
            OFFSET 0.019710 -0.140503 0.003838
            CHANNELS 3 Zrotation Xrotation Yrotation
            JOINT LeftHand
            {
              OFFSET -0.056381 0.050539 0.117333
              CHANNELS 3 Zrotation Xrotation Yrotation
            }
          }
        }
      }
      JOINT RightShoulder
      {
        OFFSET -0.305711 0.040779 0.096593
        CHANNELS 3 Zrotation Xrotation Yrotation
        JOINT RightUpperArm
        {
          OFFSET 0.000000 0.000000 0.000000
          CHANNELS 3 Zrotation Xrotation Yrotation
          JOINT RightForearm
          {
            OFFSET -0.191375 -0.116263 -0.052067
            CHANNELS 3 Zrotation Xrotation Yrotation
            JOINT RightHand
            {
              OFFSET -0.019522 -0.194788 -0.003059
              CHANNELS 3 Zrotation Xrotation Yrotation
            }
          }
        }
      }
    }
  }
  JOINT LeftUpLeg
  {
    OFFSET 0.000000 0.000000 0.000000
    CHANNELS 3 Zrotation Xrotation Yrotation
    JOINT LeftLeg
    {
      OFFSET 0.001946 -0.084483 0.062368
      CHANNELS 3 Zrotation Xrotation Yrotation
      JOINT LeftFoot
      {
        OFFSET -0.041789 -0.313847 -0.180433
        CHANNELS 3 Zrotation Xrotation Yrotation
        JOINT LeftToeBase
        {
          OFFSET 0.145984 0.174949 0.236567
          CHANNELS 3 Zrotation Xrotation Yrotation
        }
      }
    }
  }
  JOINT RightUpLeg
  {
    OFFSET -0.239090 0.061627 0.086720
    CHANNELS 3 Zrotation Xrotation Yrotation
    JOINT RightLeg
    {
      OFFSET 0.205870 0.114481 0.136447
      CHANNELS 3 Zrotation Xrotation Yrotation
      JOINT RightFoot
      {
        OFFSET -0.038875 -0.271638 -0.055199
        CHANNELS 3 Zrotation Xrotation Yrotation
        JOINT RightToeBase
        {
          OFFSET 0.044236 0.202526 0.296196
          CHANNELS 3 Zrotation Xrotation Yrotation
        }
      }
    }
  }
}
MOTION
Frames: 7
Frame Time: 0.081683
0.116562 0.972975 -0.043375 67.561747 -13.076348 19.443841 -84.871083 -14.723256 8.332949 93.643836 11.478775 12.907666 -145.174370 8.029929 43.129576 0.000000 0.000000 0.000000 52.481921 10.753632 -51.178507 -170.097179 -23.903181 21.455029 23.168884 1.207366 -2.818742 153.195756 -54.219664 -114.095782 -21.671763 9.963899 -4.784312 -38.937581 -12.528311 -23.080549 -23.178543 0.991990 2.315506 37.042901 20.960004 3.016183 36.356643 13.536670 3.183242 -66.375827 -12.098696 -60.928064 -8.979504 10.788531 66.091353 4.810828 43.254027 -121.593215 -99.585374 58.852969 170.805081 0.519580 52.620518 -61.500500 -105.815226 46.347562 33.015065 18.447336 11.158799 -105.838067 -17.117553 35.653089 -124.610995
0.123546 0.974940 -0.046417 68.509682 -13.437020 19.628021 -85.852525 -14.103919 15.128163 91.853246 18.006730 12.244571 -145.725983 7.221659 42.150488 0.000000 0.000000 0.000000 53.911602 11.460837 -46.386034 -169.720341 -19.272670 17.186346 23.192220 0.559302 -1.305191 172.586610 -22.651909 -99.218287 -16.527681 2.861107 2.674396 -39.674572 -18.112439 -25.148817 -23.160663 1.364094 3.185128 47.364726 20.771787 7.274245 34.245717 11.807944 3.688261 -65.089322 -6.589057 -107.949703 -3.764219 14.568601 113.614233 -3.459720 47.808533 -130.265462 -101.671491 60.249800 170.437556 21.949995 62.128245 -47.785907 -127.839988 49.677406 28.682541 17.395837 12.807553 -116.408771 -15.111077 35.457143 -121.770279
0.112690 0.972309 -0.051336 65.293445 -15.368877 23.785800 -83.935000 -18.117752 6.431607 94.185553 5.898921 21.558774 -149.667261 -2.340382 45.155643 0.000000 0.000000 0.000000 57.786992 12.866117 -49.807753 -160.597926 5.830339 -11.932529 22.894044 -3.851709 9.038323 -166.476689 -33.362319 156.517379 28.798977 20.417680 44.246506 -39.328737 -7.631733 -32.236200 -23.191956 0.570749 1.331913 34.460153 10.270934 1.680030 40.990516 10.889462 3.600377 -69.969678 -18.519528 -46.494145 -1.175861 3.612412 48.026792 4.856354 39.346588 -111.636813 -104.926252 56.095446 165.830578 -6.502817 43.594800 -60.237776 -88.306497 32.520893 35.515475 12.128467 12.366856 -101.487145 -23.087214 39.150803 -129.374675
0.123266 0.976100 -0.032537 72.548573 -10.170515 13.827508 -88.275132 -10.383041 12.263678 92.624416 6.441482 18.658953 -147.474681 1.722594 46.138554 0.000000 0.000000 0.000000 53.923064 9.887548 -57.635376 -154.842685 -6.076638 -2.646030 23.117502 -1.993418 4.658317 -26.969277 -82.223039 20.629941 -3.950889 -10.048319 9.579518 -42.660024 -2.150511 -26.527168 -23.198524 0.057012 0.133028 37.102985 15.410811 -0.958069 44.877698 18.167402 4.826198 -78.116056 -13.532399 -49.473595 2.257950 2.133552 58.037532 4.463153 34.995013 -109.076305 -90.691490 57.583506 178.293335 -22.837152 45.869874 -79.799565 -71.627298 46.146135 56.100869 10.345400 9.198790 -94.626115 -20.156418 37.394658 -127.670561
0.121217 0.978710 -0.030970 73.708703 -10.089956 13.433895 -88.648728 -10.169337 12.818908 90.865169 10.429497 13.737076 -139.981990 7.730424 48.234332 0.000000 0.000000 0.000000 46.210866 5.281729 -62.639590 -162.783043 -16.203051 10.329399 23.198138 -0.149122 0.347953 146.702354 -64.537747 -128.379788 -15.068208 9.575773 1.653990 -41.120539 -3.330702 -21.481266 -23.197836 0.192552 0.449294 29.326698 14.938447 -1.510147 46.552646 16.611195 3.244234 -81.673679 -13.807095 -37.490749 4.182222 1.452688 51.337692 2.029536 32.479729 -112.662154 -85.189727 57.052102 -177.028314 -23.539795 47.174904 -80.957136 -70.684641 46.275717 62.581738 7.766862 8.900460 -98.689832 -18.768722 35.931459 -126.524615
0.123606 0.975953 -0.038412 70.637504 -11.540514 16.233759 -86.818855 -11.514826 16.418187 92.079076 15.740133 13.885127 -142.137378 5.602358 45.060184 0.000000 0.000000 0.000000 49.001390 8.773799 -54.629883 -166.591049 -24.650895 19.673237 23.181646 0.912021 -2.128720 156.526544 -51.082612 -123.713714 -18.570156 8.054544 -1.389684 -37.585379 -10.771439 -25.163395 -23.182765 0.881400 2.057203 29.434473 14.647986 1.629501 45.713618 14.864415 4.840312 -64.518072 -5.358514 -74.892021 -9.618929 10.971218 89.533025 -5.676457 38.518694 -130.943281 -87.867400 59.712243 -178.350856 -14.294909 56.396855 -80.684666 -88.332589 54.836157 60.310162 11.183341 12.077412 -111.169476 -18.153736 36.402257 -124.452229
0.129977 0.971074 -0.026122 71.705225 -7.303140 10.093996 -87.305692 -5.967966 19.882341 94.952573 15.764830 13.190274 -143.048547 7.091142 44.506943 0.000000 0.000000 0.000000 48.567307 9.378005 -55.424373 -164.160656 -1.860847 -1.857676 23.138776 -1.712565 4.000426 -20.606908 -60.309432 16.104785 -3.311080 -18.421580 11.237935 -38.944242 -9.100490 -22.322705 -23.186640 0.765977 1.787677 31.024759 19.860764 1.114468 47.330970 23.712603 7.908295 -72.501547 -7.851861 -59.514384 -0.645285 2.595227 76.759032 -4.108737 37.562393 -121.472086 -92.671894 59.219176 177.016452 -6.806424 52.216693 -70.282693 -83.478584 51.498695 59.075772 8.897812 11.755543 -105.985201 -19.394521 37.873272 -125.243754
